<mxfile host="app.diagrams.net" modified="2020-11-07T17:47:21.865Z" agent="5.0 (Windows NT 10.0; Win64; x64) AppleWebKit/537.36 (KHTML, like Gecko) Chrome/86.0.4240.183 Safari/537.36" etag="tEdWX2owvjoPkLIWUiFM" version="13.9.2" type="github">
  <diagram id="6a731a19-8d31-9384-78a2-239565b7b9f0" name="Page-1">
    <mxGraphModel dx="1422" dy="1931" grid="1" gridSize="10" guides="1" tooltips="1" connect="1" arrows="1" fold="1" page="1" pageScale="1" pageWidth="827" pageHeight="1169" background="#ffffff" math="0" shadow="0">
      <root>
        <mxCell id="0" />
        <mxCell id="1" parent="0" />
        <mxCell id="9pcnCIAtFlInRtoTIdlc-2260" value="" style="edgeStyle=orthogonalEdgeStyle;rounded=0;orthogonalLoop=1;jettySize=auto;html=1;" edge="1" parent="1" source="9pcnCIAtFlInRtoTIdlc-2257" target="9pcnCIAtFlInRtoTIdlc-2259">
          <mxGeometry relative="1" as="geometry">
            <Array as="points">
              <mxPoint x="206" y="190" />
              <mxPoint x="206" y="190" />
            </Array>
          </mxGeometry>
        </mxCell>
        <mxCell id="9pcnCIAtFlInRtoTIdlc-2263" style="edgeStyle=orthogonalEdgeStyle;rounded=0;orthogonalLoop=1;jettySize=auto;html=1;exitX=0.5;exitY=0;exitDx=0;exitDy=0;entryX=0;entryY=0.5;entryDx=0;entryDy=0;" edge="1" parent="1" source="9pcnCIAtFlInRtoTIdlc-2257" target="9pcnCIAtFlInRtoTIdlc-2261">
          <mxGeometry relative="1" as="geometry" />
        </mxCell>
        <mxCell id="9pcnCIAtFlInRtoTIdlc-2264" style="edgeStyle=orthogonalEdgeStyle;rounded=0;orthogonalLoop=1;jettySize=auto;html=1;exitX=0.5;exitY=0;exitDx=0;exitDy=0;entryX=1;entryY=0.5;entryDx=0;entryDy=0;" edge="1" parent="1" source="9pcnCIAtFlInRtoTIdlc-2258" target="9pcnCIAtFlInRtoTIdlc-2261">
          <mxGeometry relative="1" as="geometry" />
        </mxCell>
        <mxCell id="9pcnCIAtFlInRtoTIdlc-2267" value="" style="edgeStyle=orthogonalEdgeStyle;rounded=0;orthogonalLoop=1;jettySize=auto;html=1;" edge="1" parent="1" source="9pcnCIAtFlInRtoTIdlc-2258" target="9pcnCIAtFlInRtoTIdlc-2265">
          <mxGeometry relative="1" as="geometry" />
        </mxCell>
        <mxCell id="9pcnCIAtFlInRtoTIdlc-2261" value="Internet" style="aspect=fixed;perimeter=ellipsePerimeter;html=1;align=center;shadow=0;dashed=0;image;image=img/lib/cumulus/internet.svg;labelPosition=center;verticalLabelPosition=middle;verticalAlign=middle;fontSize=14;fontColor=#36424A;" vertex="1" parent="1">
          <mxGeometry x="316" y="-70" width="274" height="98" as="geometry" />
        </mxCell>
        <mxCell id="9pcnCIAtFlInRtoTIdlc-2275" value="" style="edgeStyle=orthogonalEdgeStyle;rounded=0;orthogonalLoop=1;jettySize=auto;html=1;fontSize=10;" edge="1" parent="1" source="9pcnCIAtFlInRtoTIdlc-2270" target="9pcnCIAtFlInRtoTIdlc-2268">
          <mxGeometry relative="1" as="geometry">
            <Array as="points">
              <mxPoint x="686" y="280" />
              <mxPoint x="686" y="280" />
            </Array>
          </mxGeometry>
        </mxCell>
        <mxCell id="9pcnCIAtFlInRtoTIdlc-2279" value="" style="group" vertex="1" connectable="0" parent="1">
          <mxGeometry x="440" y="229" width="120" height="55" as="geometry" />
        </mxCell>
        <mxCell id="9pcnCIAtFlInRtoTIdlc-2286" value="" style="rounded=0;whiteSpace=wrap;html=1;fontSize=10;" vertex="1" parent="9pcnCIAtFlInRtoTIdlc-2279">
          <mxGeometry width="120" height="50" as="geometry" />
        </mxCell>
        <mxCell id="9pcnCIAtFlInRtoTIdlc-2276" value="" style="fillColor=#EAEDF2;strokeColor=none;fontSize=10;" vertex="1" parent="9pcnCIAtFlInRtoTIdlc-2279">
          <mxGeometry width="120" height="50" as="geometry" />
        </mxCell>
        <mxCell id="9pcnCIAtFlInRtoTIdlc-2277" value="eth0 on all devices" style="text;html=1;strokeColor=none;fillColor=none;align=center;verticalAlign=middle;whiteSpace=wrap;rounded=0;fontSize=10;" vertex="1" parent="9pcnCIAtFlInRtoTIdlc-2279">
          <mxGeometry width="120" height="50" as="geometry" />
        </mxCell>
        <mxCell id="9pcnCIAtFlInRtoTIdlc-2280" value="" style="edgeStyle=orthogonalEdgeStyle;rounded=0;orthogonalLoop=1;jettySize=auto;html=1;fontSize=10;" edge="1" parent="1" source="9pcnCIAtFlInRtoTIdlc-2277" target="9pcnCIAtFlInRtoTIdlc-2270">
          <mxGeometry relative="1" as="geometry" />
        </mxCell>
        <mxCell id="9pcnCIAtFlInRtoTIdlc-2281" value="" style="group" vertex="1" connectable="0" parent="1">
          <mxGeometry x="624" y="240" width="122" height="30" as="geometry" />
        </mxCell>
        <mxCell id="9pcnCIAtFlInRtoTIdlc-2265" value="" style="aspect=fixed;perimeter=ellipsePerimeter;html=1;align=center;fontSize=12;verticalAlign=top;fontColor=#364149;shadow=0;dashed=0;image;image=img/lib/cumulus/switch_cumulus_linux.svg;" vertex="1" parent="9pcnCIAtFlInRtoTIdlc-2281">
          <mxGeometry x="2" width="120" height="30" as="geometry" />
        </mxCell>
        <mxCell id="9pcnCIAtFlInRtoTIdlc-2270" value="&lt;font style=&quot;font-size: 10px;&quot;&gt;oob-switch&lt;/font&gt;" style="text;html=1;strokeColor=none;fillColor=none;align=center;verticalAlign=middle;whiteSpace=wrap;rounded=0;fontSize=10;" vertex="1" parent="9pcnCIAtFlInRtoTIdlc-2281">
          <mxGeometry y="4" width="75" height="20" as="geometry" />
        </mxCell>
        <mxCell id="9pcnCIAtFlInRtoTIdlc-2282" value="" style="group" vertex="1" connectable="0" parent="1">
          <mxGeometry x="626" y="360" width="120" height="30" as="geometry" />
        </mxCell>
        <mxCell id="9pcnCIAtFlInRtoTIdlc-2268" value="" style="aspect=fixed;perimeter=ellipsePerimeter;html=1;align=center;fontSize=12;verticalAlign=top;fontColor=#364149;shadow=0;dashed=0;image;image=img/lib/cumulus/switch_cumulus_linux.svg;" vertex="1" parent="9pcnCIAtFlInRtoTIdlc-2282">
          <mxGeometry width="120" height="30" as="geometry" />
        </mxCell>
        <mxCell id="9pcnCIAtFlInRtoTIdlc-2274" value="&lt;font style=&quot;font-size: 10px;&quot;&gt;snmp-server&lt;/font&gt;" style="text;html=1;strokeColor=none;fillColor=none;align=center;verticalAlign=middle;whiteSpace=wrap;rounded=0;fontSize=10;" vertex="1" parent="9pcnCIAtFlInRtoTIdlc-2282">
          <mxGeometry x="7" y="4" width="63" height="20" as="geometry" />
        </mxCell>
        <mxCell id="9pcnCIAtFlInRtoTIdlc-2283" value="" style="group" vertex="1" connectable="0" parent="1">
          <mxGeometry x="618" y="120" width="128" height="30" as="geometry" />
        </mxCell>
        <mxCell id="9pcnCIAtFlInRtoTIdlc-2258" value="" style="aspect=fixed;perimeter=ellipsePerimeter;html=1;align=center;fontSize=12;verticalAlign=top;fontColor=#364149;shadow=0;dashed=0;image;image=img/lib/cumulus/switch_out_of_band.svg;" vertex="1" parent="9pcnCIAtFlInRtoTIdlc-2283">
          <mxGeometry x="8" width="120" height="30" as="geometry" />
        </mxCell>
        <mxCell id="9pcnCIAtFlInRtoTIdlc-2271" value="&lt;font style=&quot;font-size: 10px&quot;&gt;oob-server&lt;/font&gt;" style="text;html=1;strokeColor=none;fillColor=none;align=center;verticalAlign=middle;whiteSpace=wrap;rounded=0;fontSize=10;" vertex="1" parent="9pcnCIAtFlInRtoTIdlc-2283">
          <mxGeometry y="4" width="90" height="20" as="geometry" />
        </mxCell>
        <mxCell id="9pcnCIAtFlInRtoTIdlc-2284" value="" style="group" vertex="1" connectable="0" parent="1">
          <mxGeometry x="140" y="121" width="126" height="30" as="geometry" />
        </mxCell>
        <mxCell id="9pcnCIAtFlInRtoTIdlc-2257" value="" style="aspect=fixed;perimeter=ellipsePerimeter;html=1;align=center;fontSize=12;verticalAlign=top;fontColor=#364149;shadow=0;dashed=0;image;image=img/lib/cumulus/switch_cumulus_linux.svg;" vertex="1" parent="9pcnCIAtFlInRtoTIdlc-2284">
          <mxGeometry x="6" width="120" height="30" as="geometry" />
        </mxCell>
        <mxCell id="9pcnCIAtFlInRtoTIdlc-2272" value="&lt;font style=&quot;font-size: 10px;&quot;&gt;router01&lt;/font&gt;" style="text;html=1;strokeColor=none;fillColor=none;align=center;verticalAlign=middle;whiteSpace=wrap;rounded=0;fontSize=10;" vertex="1" parent="9pcnCIAtFlInRtoTIdlc-2284">
          <mxGeometry y="4" width="74" height="20" as="geometry" />
        </mxCell>
        <mxCell id="9pcnCIAtFlInRtoTIdlc-2285" value="" style="group" vertex="1" connectable="0" parent="1">
          <mxGeometry x="146" y="240" width="125" height="30" as="geometry" />
        </mxCell>
        <mxCell id="9pcnCIAtFlInRtoTIdlc-2259" value="" style="aspect=fixed;perimeter=ellipsePerimeter;html=1;align=center;fontSize=12;verticalAlign=top;fontColor=#364149;shadow=0;dashed=0;image;image=img/lib/cumulus/switch_cumulus_linux.svg;" vertex="1" parent="9pcnCIAtFlInRtoTIdlc-2285">
          <mxGeometry x="1" width="120" height="30" as="geometry" />
        </mxCell>
        <mxCell id="9pcnCIAtFlInRtoTIdlc-2273" value="&lt;font style=&quot;font-size: 10px;&quot;&gt;switch01&lt;/font&gt;" style="text;html=1;strokeColor=none;fillColor=none;align=center;verticalAlign=middle;whiteSpace=wrap;rounded=0;fontSize=10;" vertex="1" parent="9pcnCIAtFlInRtoTIdlc-2285">
          <mxGeometry y="4" width="75" height="20" as="geometry" />
        </mxCell>
        <mxCell id="9pcnCIAtFlInRtoTIdlc-2291" value="" style="endArrow=none;html=1;fontSize=10;exitX=1;exitY=0.5;exitDx=0;exitDy=0;entryX=0;entryY=0.5;entryDx=0;entryDy=0;" edge="1" parent="1" source="9pcnCIAtFlInRtoTIdlc-2257" target="9pcnCIAtFlInRtoTIdlc-2287">
          <mxGeometry width="50" height="50" relative="1" as="geometry">
            <mxPoint x="546" y="220" as="sourcePoint" />
            <mxPoint x="596" y="170" as="targetPoint" />
            <Array as="points" />
          </mxGeometry>
        </mxCell>
        <mxCell id="9pcnCIAtFlInRtoTIdlc-2292" value="" style="group" vertex="1" connectable="0" parent="1">
          <mxGeometry x="286" y="128" width="100" height="16" as="geometry" />
        </mxCell>
        <mxCell id="9pcnCIAtFlInRtoTIdlc-2287" value="eth0" style="rounded=0;whiteSpace=wrap;html=1;fillColor=#FB9F41;strokeColor=none;fontColor=#FFFFFF;" vertex="1" parent="9pcnCIAtFlInRtoTIdlc-2292">
          <mxGeometry width="40" height="16" as="geometry" />
        </mxCell>
        <mxCell id="9pcnCIAtFlInRtoTIdlc-2288" value="oob-sw" style="text;verticalAlign=middle;align=center;fontColor=#FB9F41;fontStyle=1" vertex="1" parent="9pcnCIAtFlInRtoTIdlc-2292">
          <mxGeometry x="40" width="60" height="16" as="geometry" />
        </mxCell>
        <mxCell id="9pcnCIAtFlInRtoTIdlc-2293" value="" style="group" vertex="1" connectable="0" parent="1">
          <mxGeometry x="286" y="247" width="100" height="16" as="geometry" />
        </mxCell>
        <mxCell id="9pcnCIAtFlInRtoTIdlc-2294" value="eth0" style="rounded=0;whiteSpace=wrap;html=1;fillColor=#FB9F41;strokeColor=none;fontColor=#FFFFFF;" vertex="1" parent="9pcnCIAtFlInRtoTIdlc-2293">
          <mxGeometry width="40" height="16" as="geometry" />
        </mxCell>
        <mxCell id="9pcnCIAtFlInRtoTIdlc-2295" value="oob-sw" style="text;verticalAlign=middle;align=center;fontColor=#FB9F41;fontStyle=1" vertex="1" parent="9pcnCIAtFlInRtoTIdlc-2293">
          <mxGeometry x="40" width="60" height="16" as="geometry" />
        </mxCell>
        <mxCell id="9pcnCIAtFlInRtoTIdlc-2296" value="" style="endArrow=none;html=1;fontSize=10;exitX=1;exitY=0.5;exitDx=0;exitDy=0;entryX=0;entryY=0.5;entryDx=0;entryDy=0;" edge="1" parent="1" source="9pcnCIAtFlInRtoTIdlc-2259" target="9pcnCIAtFlInRtoTIdlc-2294">
          <mxGeometry width="50" height="50" relative="1" as="geometry">
            <mxPoint x="546" y="220" as="sourcePoint" />
            <mxPoint x="596" y="170" as="targetPoint" />
          </mxGeometry>
        </mxCell>
        <mxCell id="9pcnCIAtFlInRtoTIdlc-2316" value="" style="group" vertex="1" connectable="0" parent="1">
          <mxGeometry x="48" y="348.78" width="80" height="138.22" as="geometry" />
        </mxCell>
        <mxCell id="9pcnCIAtFlInRtoTIdlc-2306" value="" style="rounded=1;whiteSpace=wrap;html=1;fontSize=10;" vertex="1" parent="9pcnCIAtFlInRtoTIdlc-2316">
          <mxGeometry width="80" height="138.22" as="geometry" />
        </mxCell>
        <mxCell id="9pcnCIAtFlInRtoTIdlc-2297" value="" style="fontColor=#0066CC;verticalAlign=top;verticalLabelPosition=bottom;labelPosition=center;align=center;html=1;outlineConnect=0;fillColor=#CCCCCC;strokeColor=#6881B3;gradientColor=none;gradientDirection=north;strokeWidth=2;shape=mxgraph.networks.security_camera;" vertex="1" parent="9pcnCIAtFlInRtoTIdlc-2316">
          <mxGeometry x="13.919999999999995" y="31.0995" width="52.151111111111106" height="38.01049999999999" as="geometry" />
        </mxCell>
        <mxCell id="9pcnCIAtFlInRtoTIdlc-2299" value="" style="fontColor=#0066CC;verticalAlign=top;verticalLabelPosition=bottom;labelPosition=center;align=center;html=1;outlineConnect=0;fillColor=#CCCCCC;strokeColor=#6881B3;gradientColor=none;gradientDirection=north;strokeWidth=2;shape=mxgraph.networks.secured;" vertex="1" parent="9pcnCIAtFlInRtoTIdlc-2316">
          <mxGeometry x="19.137777777777774" y="81.20712958333338" width="41.72088888888888" height="50.68066666666666" as="geometry" />
        </mxCell>
        <mxCell id="9pcnCIAtFlInRtoTIdlc-2317" value="" style="group" vertex="1" connectable="0" parent="1">
          <mxGeometry x="168" y="347" width="78.75" height="140" as="geometry" />
        </mxCell>
        <mxCell id="9pcnCIAtFlInRtoTIdlc-2318" value="" style="rounded=1;whiteSpace=wrap;html=1;fontSize=10;" vertex="1" parent="9pcnCIAtFlInRtoTIdlc-2317">
          <mxGeometry width="78.75" height="140" as="geometry" />
        </mxCell>
        <mxCell id="9pcnCIAtFlInRtoTIdlc-2319" value="" style="fontColor=#0066CC;verticalAlign=top;verticalLabelPosition=bottom;labelPosition=center;align=center;html=1;outlineConnect=0;fillColor=#CCCCCC;strokeColor=#6881B3;gradientColor=none;gradientDirection=north;strokeWidth=2;shape=mxgraph.networks.security_camera;" vertex="1" parent="9pcnCIAtFlInRtoTIdlc-2317">
          <mxGeometry x="13.702499999999997" y="31.5" width="51.33625" height="38.5" as="geometry" />
        </mxCell>
        <mxCell id="9pcnCIAtFlInRtoTIdlc-2320" value="" style="fontColor=#0066CC;verticalAlign=top;verticalLabelPosition=bottom;labelPosition=center;align=center;html=1;outlineConnect=0;fillColor=#CCCCCC;strokeColor=#6881B3;gradientColor=none;gradientDirection=north;strokeWidth=2;shape=mxgraph.networks.secured;" vertex="1" parent="9pcnCIAtFlInRtoTIdlc-2317">
          <mxGeometry x="18.83875" y="82.25291666666672" width="41.069" height="51.33333333333333" as="geometry" />
        </mxCell>
        <mxCell id="9pcnCIAtFlInRtoTIdlc-2321" value="" style="group" vertex="1" connectable="0" parent="1">
          <mxGeometry x="288" y="347" width="78.75" height="140" as="geometry" />
        </mxCell>
        <mxCell id="9pcnCIAtFlInRtoTIdlc-2322" value="" style="rounded=1;whiteSpace=wrap;html=1;fontSize=10;" vertex="1" parent="9pcnCIAtFlInRtoTIdlc-2321">
          <mxGeometry width="78.75" height="140" as="geometry" />
        </mxCell>
        <mxCell id="9pcnCIAtFlInRtoTIdlc-2323" value="" style="fontColor=#0066CC;verticalAlign=top;verticalLabelPosition=bottom;labelPosition=center;align=center;html=1;outlineConnect=0;fillColor=#CCCCCC;strokeColor=#6881B3;gradientColor=none;gradientDirection=north;strokeWidth=2;shape=mxgraph.networks.security_camera;" vertex="1" parent="9pcnCIAtFlInRtoTIdlc-2321">
          <mxGeometry x="13.702499999999997" y="31.5" width="51.33625" height="38.5" as="geometry" />
        </mxCell>
        <mxCell id="9pcnCIAtFlInRtoTIdlc-2324" value="" style="fontColor=#0066CC;verticalAlign=top;verticalLabelPosition=bottom;labelPosition=center;align=center;html=1;outlineConnect=0;fillColor=#CCCCCC;strokeColor=#6881B3;gradientColor=none;gradientDirection=north;strokeWidth=2;shape=mxgraph.networks.secured;" vertex="1" parent="9pcnCIAtFlInRtoTIdlc-2321">
          <mxGeometry x="18.83875" y="82.25291666666672" width="41.069" height="51.33333333333333" as="geometry" />
        </mxCell>
        <mxCell id="9pcnCIAtFlInRtoTIdlc-2325" value="" style="endArrow=none;html=1;fontSize=10;exitX=0.5;exitY=0;exitDx=0;exitDy=0;" edge="1" parent="1" source="9pcnCIAtFlInRtoTIdlc-2306" target="9pcnCIAtFlInRtoTIdlc-2326">
          <mxGeometry width="50" height="50" relative="1" as="geometry">
            <mxPoint x="528" y="347" as="sourcePoint" />
            <mxPoint x="173" y="287" as="targetPoint" />
          </mxGeometry>
        </mxCell>
        <mxCell id="9pcnCIAtFlInRtoTIdlc-2326" value="&lt;font style=&quot;font-size: 10px&quot;&gt;swp1&lt;/font&gt;" style="rounded=0;whiteSpace=wrap;html=1;fillColor=#FB9F41;strokeColor=none;fontColor=#FFFFFF;verticalAlign=bottom;spacing=0;spacingLeft=3;spacingBottom=1;" vertex="1" parent="1">
          <mxGeometry x="147" y="281" width="34" height="15" as="geometry" />
        </mxCell>
        <mxCell id="9pcnCIAtFlInRtoTIdlc-2327" value="" style="endArrow=none;html=1;fontSize=10;exitX=0.5;exitY=0;exitDx=0;exitDy=0;" edge="1" parent="1" target="9pcnCIAtFlInRtoTIdlc-2328" source="9pcnCIAtFlInRtoTIdlc-2318">
          <mxGeometry width="50" height="50" relative="1" as="geometry">
            <mxPoint x="128" y="348.77999999999975" as="sourcePoint" />
            <mxPoint x="213" y="287" as="targetPoint" />
          </mxGeometry>
        </mxCell>
        <mxCell id="9pcnCIAtFlInRtoTIdlc-2328" value="&lt;font style=&quot;font-size: 10px&quot;&gt;swp1&lt;/font&gt;" style="rounded=0;whiteSpace=wrap;html=1;fillColor=#FB9F41;strokeColor=none;fontColor=#FFFFFF;verticalAlign=bottom;spacing=0;spacingLeft=3;spacingBottom=1;" vertex="1" parent="1">
          <mxGeometry x="190" y="281" width="34" height="15" as="geometry" />
        </mxCell>
        <mxCell id="9pcnCIAtFlInRtoTIdlc-2329" value="" style="endArrow=none;html=1;fontSize=10;exitX=0.5;exitY=0;exitDx=0;exitDy=0;" edge="1" parent="1" target="9pcnCIAtFlInRtoTIdlc-2330" source="9pcnCIAtFlInRtoTIdlc-2322">
          <mxGeometry width="50" height="50" relative="1" as="geometry">
            <mxPoint x="168" y="348.77999999999975" as="sourcePoint" />
            <mxPoint x="253" y="287" as="targetPoint" />
          </mxGeometry>
        </mxCell>
        <mxCell id="9pcnCIAtFlInRtoTIdlc-2330" value="&lt;font style=&quot;font-size: 10px&quot;&gt;swp1&lt;/font&gt;" style="rounded=0;whiteSpace=wrap;html=1;fillColor=#FB9F41;strokeColor=none;fontColor=#FFFFFF;verticalAlign=bottom;spacing=0;spacingLeft=3;spacingBottom=1;" vertex="1" parent="1">
          <mxGeometry x="233" y="281" width="34" height="15" as="geometry" />
        </mxCell>
        <mxCell id="9pcnCIAtFlInRtoTIdlc-2332" value="" style="endArrow=none;html=1;fontSize=10;exitX=0.5;exitY=0;exitDx=0;exitDy=0;strokeColor=#999999;" edge="1" parent="1" source="9pcnCIAtFlInRtoTIdlc-2326">
          <mxGeometry width="50" height="50" relative="1" as="geometry">
            <mxPoint x="280" y="380" as="sourcePoint" />
            <mxPoint x="164" y="270" as="targetPoint" />
          </mxGeometry>
        </mxCell>
        <mxCell id="9pcnCIAtFlInRtoTIdlc-2333" value="" style="endArrow=none;html=1;strokeColor=#999999;fontSize=10;exitX=0.5;exitY=0;exitDx=0;exitDy=0;entryX=0.5;entryY=1;entryDx=0;entryDy=0;" edge="1" parent="1" source="9pcnCIAtFlInRtoTIdlc-2328" target="9pcnCIAtFlInRtoTIdlc-2259">
          <mxGeometry width="50" height="50" relative="1" as="geometry">
            <mxPoint x="280" y="380" as="sourcePoint" />
            <mxPoint x="330" y="330" as="targetPoint" />
          </mxGeometry>
        </mxCell>
        <mxCell id="9pcnCIAtFlInRtoTIdlc-2334" value="" style="endArrow=none;html=1;strokeColor=#999999;fontSize=10;entryX=0.5;entryY=0;entryDx=0;entryDy=0;" edge="1" parent="1" target="9pcnCIAtFlInRtoTIdlc-2330">
          <mxGeometry width="50" height="50" relative="1" as="geometry">
            <mxPoint x="250" y="270" as="sourcePoint" />
            <mxPoint x="217" y="280" as="targetPoint" />
          </mxGeometry>
        </mxCell>
      </root>
    </mxGraphModel>
  </diagram>
</mxfile>
